# xmcd
#
# Track frame offsets:
#	150
#	18907
#	39719
#	58785
#	76586
#	95911
#	114111
#	132057
#	145890
#	163924
#	184583
#	199755
#	215902
#	231818
#	247297
#	265883
#	286915
#	306352
#	321428
#	339107
# Disc length: 4731 seconds
# Revision: 1
# Processed by: cddbd v1.5.1PL2 Copyright (c) Steve Scherf et al.
#
# Submitted via: libkcddb 0.21
#
DISCID=28127914
DTITLE=Various Artist - From the heart
DYEAR=2006
DGENRE=Unknown
TTITLE0=Leann Rimes - How do I live
TTITLE1=
TTITLE2=
TTITLE3=
TTITLE4=
TTITLE5=
TTITLE6=
TTITLE7=
TTITLE8=
TTITLE9=
TTITLE10=
TTITLE11=
TTITLE12=
TTITLE13=
TTITLE14=
TTITLE15=
TTITLE16=
TTITLE17=
TTITLE18=
TTITLE19=
EXTD=
EXTT0=
EXTT1=
EXTT2=
EXTT3=
EXTT4=
EXTT5=
EXTT6=
EXTT7=
EXTT8=
EXTT9=
EXTT10=
EXTT11=
EXTT12=
EXTT13=
EXTT14=
EXTT15=
EXTT16=
EXTT17=
EXTT18=
EXTT19=
PLAYORDER=
